# xmcd
#
# Track frame offsets:
# 150
# 11750
# 24788
# 39188
# 49525
# 65450
# 77438
# 88300
# 101388
# 117550
# 127938
# 145125
# 164825
# 184188
# 198550
# 211413
# 221550
# 230813
# 242238
# 254350
# 269300
# 281950
# 293425
# 302550
# 312250
#
# Disc length: 4329 seconds
#
#
# Revision: 0
# Processed by: cddbd v1.4PL0 Copyright (c) Steve Scherf et al.
# Submitted via: FreeRIP 2.30 
#
DISCID=6c10e719
DTITLE=Various Artist - Roadhouse Truckin' 25 Giant Tracks
DYEAR=1900
DGENRE=Truckin'
TTITLE0=TAKE THIS JOB AND SHOVE IT
TTITLE1=BOBBIE SUE
TTITLE2=RAMBLIN' MAN
TTITLE3=SIX DAYS ON THE ROAD
TTITLE4=THE DEVIL WENT DOWN TO GEORGIA
TTITLE5=ELVIRA
TTITLE6=ON THE ROAD AGAIN
TTITLE7=ME AND OLD CB
TTITLE8=RED NECKIN' LOVE MAKIN' NIGHT
TTITLE9=SO FINE
TTITLE10=CONVOY
TTITLE11=HEARTACHE TONIGHT
TTITLE12=EAST BOUND AND DOWN
TTITLE13=PHANTOM 309
TTITLE14=EVERY WHICH WAY BUT LOOSE
TTITLE15=LOOKING AT THE ROAD THROUGH A WINDSHIELD
TTITLE16=DALLAS
TTITLE17=THAT'S TRUCK DRIVIN'
TTITLE18=TRUCK DRIVERS' PRAYER
TTITLE19=DRIVIN' MY LIFE AWAY
TTITLE20=EIGHTEEN WHEELS - (Humming Home Sweet Home)
TTITLE21=GOOD OL' BOYS
TTITLE22=TRUCK DRIVIN' MAN
TTITLE23=I'LL HAVE ANOTHER CUP OF COFFEE
TTITLE24=I LOVE A RAINY NIGHT
EXTD=
EXTT0=
EXTT1=
EXTT2=
EXTT3=
EXTT4=
EXTT5=
EXTT6=
EXTT7=
EXTT8=
EXTT9=
EXTT10=
EXTT11=
EXTT12=
EXTT13=
EXTT14=
EXTT15=
EXTT16=
EXTT17=
EXTT18=
EXTT19=
EXTT20=
EXTT21=
EXTT22=
EXTT23=
EXTT24=
PLAYORDER=
